# xmcd
#
# Track frame offsets:
#	150
#	19525
#	33685
#	48637
#	63685
#	73125
#	84380
#	99995
#	110810
#	125672
#	138830
#	148392
#	162087
#	175825
#	194809
#
# Disc length: 2984 seconds
#
# Revision: 0
# Processed by: cddbd v1.4PL0 Copyright (c) Steve Scherf et al.
# Submitted via: dBpowerAMP V4.0
#
DISCID=e60ba60f
DTITLE=On the road (especially for truckers) - Vol 1
DYEAR=1900
DGENRE=Country
TTITLE0=Roland Konings Band - All You Ever Do Is Bring Me Down
TTITLE1=Bobby Prins - Lingering On
TTITLE2=The Black Devils - Without a Love
TTITLE3=Roland Konings Band - Sweet Little Liza
TTITLE4=Rocky Taylor - My Tears Are Fallin' Tonight Love
TTITLE5=Andy - Don't Break This Heart
TTITLE6=Fashion - Give My Heart a Rest
TTITLE7=Bobby Prins - I'm Coming Home
TTITLE8=Roland Konings Band - When The Sun Goes down
TTITLE9=The Sparks - If You And I Could Be As Two
TTITLE10=Flashback - A Fool Never Learns
TTITLE11=Andy - How Many
TTITLE12=Rocky Taylor - Don't Cry For Me
TTITLE13=Pleasure - Here We Go Again
TTITLE14=The Sparks - Medley (One Night - Three Steps To Heaven - Needles And Pins - Oh Donna)
EXTD=
EXTT0=
EXTT1=
EXTT2=
EXTT3=
EXTT4=
EXTT5=
EXTT6=
EXTT7=
EXTT8=
EXTT9=
EXTT10=
EXTT11=
EXTT12=
EXTT13=
EXTT14=
PLAYORDER=
